# xmcd CD database file
#
# Track frame offsets:
#	150
#	9592
#	34340
#	54969
#	75356
#	91773
#	110709
#	130364
#	147915
#	166516
#	184817
#	203543
#	219385
#	236625
#
# Disc length: 3672 seconds
#
# Revision: 0
# Processed by: cddbd v1.5.1PL0 Copyright (c) Steve Scherf et al.
# Submitted via: CDex 1.51
#
DISCID=b00e560e
DTITLE=Aventura - Love and Hate
DYEAR=1900
DGENRE=Salsa
TTITLE0=Intro
TTITLE1=La Película
TTITLE2=Hermanita
TTITLE3=Mi Niña Cambió
TTITLE4=Pueblo Por Pueblo
TTITLE5=I'm Sorry
TTITLE6=Deja Vú
TTITLE7=Conciencia
TTITLE8=Llorar
TTITLE9=Papi Dijo
TTITLE10=Me Voy
TTITLE11=Te Invito
TTITLE12=Aventura
TTITLE13=La Guerra
EXTD=
EXTT0=
EXTT1=
EXTT2=
EXTT3=
EXTT4=
EXTT5=
EXTT6=
EXTT7=
EXTT8=
EXTT9=
EXTT10=
EXTT11=
EXTT12=
EXTT13=
PLAYORDER=
